# xmcd
#
# Track frame offsets:
#	220
#	16860
#	31412
#	45285
#	58010
#	72865
#	88170
#	104032
#	120282
#
# Disc length: 1805 seconds
#
# Revision: 4
# Processed by: cddbd v1.5.2PL0 Copyright (c) Steve Scherf et al.
# Submitted via: audiograbber 1.83.01
#
DISCID=6d070b09
DTITLE=Various Artist - Country Heartaches
DYEAR=1900
DGENRE=Oldies
TTITLE0=Carlene Carter - I Fell In Love
TTITLE1=Pam Tillis - Don't Tell Me What To Do
TTITLE2=Patty Loveless - I'm That Kind Of Girl
TTITLE3=Kathy Mattea - Time Passes By
TTITLE4=Michelle Wright - All You Really Want To Do
TTITLE5=Holly Dunn - Heart Full Of Love
TTITLE6=Tanya Tucker - Oh What It Did To Me
TTITLE7=Lacy J. Dalton - Black Coffee
TTITLE8=Forester Sisters - Men
EXTD=
EXTT0=
EXTT1=
EXTT2=
EXTT3=
EXTT4=
EXTT5=
EXTT6=
EXTT7=
EXTT8=
PLAYORDER=
